<?xml version="1.0" encoding="utf-8"?>
<svg xmlns="http://www.w3.org/2000/svg" xmlns:xlink="http://www.w3.org/1999/xlink" style="margin: auto; background: none; display: block; shape-rendering: auto;" width="200px" height="200px" viewBox="0 0 100 100" preserveAspectRatio="xMidYMid">
<g transform="translate(50 50)">
<g>
<animateTransform attributeName="transform" type="rotate" values="0;36" keyTimes="0;1" dur="0.2s" repeatCount="indefinite"></animateTransform><path d="M29.491524206117255 -5.5 L38.491524206117255 -5.5 L38.491524206117255 5.5 L29.491524206117255 5.5 A30 30 0 0 1 27.091963160377592 12.885089526919998 L27.091963160377592 12.885089526919998 L34.37311610975212 18.175156797552255 L27.907478334534915 27.074343735676678 L20.62632538516039 21.78427646504442 A30 30 0 0 1 14.344193009333706 26.34851280264186 L14.344193009333706 26.34851280264186 L17.125345958708234 34.90802144929824 L6.663724279461547 38.30720838742266 L3.88257133008702 29.747699740766283 A30 30 0 0 1 -3.882571330087016 29.747699740766283 L-3.882571330087016 29.747699740766283 L-6.663724279461543 38.30720838742266 L-17.125345958708238 34.90802144929824 L-14.34419300933371 26.34851280264186 A30 30 0 0 1 -20.62632538516038 21.784276465044428 L-20.62632538516038 21.784276465044428 L-27.907478334534908 27.07434373567669 L-34.37311610975212 18.175156797552255 L-27.091963160377592 12.885089526919996 A30 30 0 0 1 -29.491524206117255 5.500000000000009 L-29.491524206117255 5.500000000000009 L-38.491524206117255 5.50000000000001 L-38.491524206117255 -5.500000000000001 L-29.491524206117255 -5.500000000000002 A30 30 0 0 1 -27.091963160377595 -12.88508952691999 L-27.091963160377595 -12.88508952691999 L-34.373116109752125 -18.175156797552248 L-27.90747833453491 -27.074343735676678 L-20.626325385160385 -21.78427646504442 A30 30 0 0 1 -14.344193009333717 -26.348512802641856 L-14.344193009333717 -26.348512802641856 L-17.125345958708245 -34.90802144929824 L-6.663724279461544 -38.30720838742266 L-3.8825713300870164 -29.747699740766283 A30 30 0 0 1 3.8825713300870057 -29.747699740766286 L3.8825713300870057 -29.747699740766286 L6.6637242794615315 -38.30720838742267 L17.12534595870823 -34.90802144929824 L14.344193009333706 -26.34851280264186 A30 30 0 0 1 20.626325385160378 -21.784276465044428 L20.626325385160378 -21.784276465044428 L27.907478334534904 -27.07434373567669 L34.37311610975212 -18.17515679755226 L27.091963160377592 -12.885089526919998 A30 30 0 0 1 29.491524206117255 -5.500000000000013 M0 -20A20 20 0 1 0 0 20 A20 20 0 1 0 0 -20" fill="#b5b2b2"></path></g></g>
<!-- [ldio] generated by https://loading.io/ --></svg>